<?xml version="1.0" encoding="UTF-8" standalone="no"?>
<!-- Created with Inkscape (http://www.inkscape.org/) -->

<svg
   width="53.909702mm"
   height="22.28771mm"
   viewBox="0 0 53.909702 22.28771"
   version="1.1"
   id="svg1"
   inkscape:version="1.4.2 (f4327f4, 2025-05-13)"
   sodipodi:docname="nav.svg"
   xmlns:inkscape="http://www.inkscape.org/namespaces/inkscape"
   xmlns:sodipodi="http://sodipodi.sourceforge.net/DTD/sodipodi-0.dtd"
   xmlns="http://www.w3.org/2000/svg"
   xmlns:svg="http://www.w3.org/2000/svg">
  <sodipodi:namedview
     id="namedview1"
     pagecolor="#1b1b1b"
     bordercolor="#000000"
     borderopacity="0.25"
     inkscape:showpageshadow="2"
     inkscape:pageopacity="0.0"
     inkscape:pagecheckerboard="false"
     inkscape:deskcolor="#d1d1d1"
     inkscape:document-units="mm"
     inkscape:zoom="4.3087087"
     inkscape:cx="59.994772"
     inkscape:cy="56.281363"
     inkscape:window-width="1920"
     inkscape:window-height="1057"
     inkscape:window-x="-8"
     inkscape:window-y="-8"
     inkscape:window-maximized="1"
     inkscape:current-layer="layer1"
     showgrid="true"
     inkscape:clip-to-page="true">
    <inkscape:grid
       id="grid1"
       units="mm"
       originx="-0.28493157"
       originy="-1.1843054"
       spacingx="0.99999998"
       spacingy="1"
       empcolor="#0099e5"
       empopacity="0.30196078"
       color="#0099e5"
       opacity="0.14901961"
       empspacing="5"
       enabled="true"
       visible="true" />
  </sodipodi:namedview>
  <defs
     id="defs1" />
  <g
     inkscape:label="Layer 1"
     inkscape:groupmode="layer"
     id="layer1"
     transform="translate(-0.28493154,-1.1843054)">
    <path
       id="path1"
       style="fill:#020618;fill-opacity:1;fill-rule:nonzero;stroke:#ffffff;stroke-width:0.965;stroke-linecap:butt;stroke-linejoin:bevel;stroke-miterlimit:4;stroke-dasharray:none;stroke-opacity:1;paint-order:normal"
       d="M 11.275322,1.6668524 A 10.507894,10.507894 0 0 0 0.76743153,12.174738 10.507894,10.507894 0 0 0 11.275322,22.682624 a 10.507894,10.507894 0 0 0 6.28127,-2.084628 h 5.2e-4 l 0.009,0.0036 c 0,0 0.016,-0.01746 0.0475,-0.04651 a 10.507894,10.507894 0 0 0 0.30489,-0.239262 c 0.28802,-0.194939 0.73333,-0.418487 1.26246,-0.420646 0.94012,-0.0038 1.6831,0.65629 1.6831,0.65629 l 0.006,-0.0021 a 10.507894,10.507894 0 0 0 6.486943,2.241724 10.507894,10.507894 0 0 0 6.10971,-1.959053 l 0.003,10e-4 c 0,0 0.003,-0.0031 0.009,-0.0093 a 10.507894,10.507894 0 0 0 0.46871,-0.356567 c 0.28462,-0.171232 0.67946,-0.338681 1.13688,-0.340548 0.94012,-0.0038 1.6831,0.656291 1.6831,0.656291 l 0.0114,-0.0036 a 10.507894,10.507894 0 0 0 6.42545,2.210201 10.507894,10.507894 0 0 0 10.50788,-10.507886 10.507894,10.507894 0 0 0 -10.50788,-10.5078856 10.507894,10.507894 0 0 0 -6.15725,2.013314 l -0.017,-0.0057 c 0,0 -0.74299,0.660091 -1.68311,0.656291 -0.94013,-0.0038 -1.61488,-0.706417 -1.61488,-0.706417 l -0.0248,0.0088 a 10.507894,10.507894 0 0 0 -6.35,-2.164725 10.507894,10.507894 0 0 0 -6.331913,2.145605 l -0.007,-0.0026 c 0,0 -0.0285,0.02434 -0.0692,0.05633 a 10.507894,10.507894 0 0 0 -0.22273,0.157096 c -0.30124,0.192491 -0.80832,0.445223 -1.39113,0.442867 -0.56172,-0.0023 -1.02869,-0.254086 -1.31361,-0.456303 a 10.507894,10.507894 0 0 0 -0.2651,-0.214457 c -0.0239,-0.02241 -0.0362,-0.03514 -0.0362,-0.03514 l -0.006,0.0021 a 10.507894,10.507894 0 0 0 -6.43888,-2.204 z" />
  </g>
</svg>
